Coordinates
version=1
nRows=19
nColumns=36
inDegrees=yes

Units are S.I. units (second, meters, Newtons, ...)
If the header above contains a line with 'inDegrees', this indicates whether rotational values are in degrees (yes) or radians (no).

endheader
time	pelvis_tilt	pelvis_list	pelvis_rotation	pelvis_tx	pelvis_ty	pelvis_tz	hip_flexion_r	hip_adduction_r	hip_rotation_r	knee_angle_r	knee_angle_r_beta	ankle_angle_r	subtalar_angle_r	mtp_angle_r	hip_flexion_l	hip_adduction_l	hip_rotation_l	knee_angle_l	knee_angle_l_beta	ankle_angle_l	subtalar_angle_l	mtp_angle_l	lumbar_extension	lumbar_bending	lumbar_rotation	arm_flex_r	arm_add_r	arm_rot_r	elbow_flex_r	pro_sup_r	arm_flex_l	arm_add_l	arm_rot_l	elbow_flex_l	pro_sup_l
      5.92000000	    -38.20624450	     -1.17561246	     -5.91343979	     -0.33560694	      0.59674669	     -0.61922851	    100.79664379	    -11.38880195	     -3.53936588	     96.62151642	      1.68636359	     35.65393945	     -5.07590265	     -7.49999987	    105.56437212	    -22.61194719	      4.87454295	     97.82732684	      1.70740895	     33.06250994	     -0.58775999	     -7.49999987	    -11.65742792	      1.53254685	      0.23330005	     67.87822567	    -27.33234729	     48.75906189	    133.61499161	    112.03042461	     71.71889485	    -28.13527357	     58.03351412	    130.05703627	    108.29322065
      5.93000000	    -38.25206265	     -1.08191366	     -5.83781488	     -0.33568724	      0.59764946	     -0.61938869	    100.78784635	    -11.41131722	     -3.42531792	     96.46589118	      1.68364742	     35.54821351	     -5.18070358	     -7.49999987	    105.42171441	    -22.48780071	      4.70510704	     97.62482207	      1.70387458	     32.92638947	     -0.77357450	     -7.49999987	    -11.51174098	      1.49660993	      0.09649785	     67.76665564	    -27.48383833	     48.81351157	    133.63789504	    111.90498421	     71.57758229	    -28.34376341	     57.90823390	    130.01440219	    108.46263253
      5.94000000	    -38.31832323	     -1.06823102	     -5.83684119	     -0.33585942	      0.59849588	     -0.61946701	    100.75055832	    -11.35030151	     -3.40863311	     96.26170588	      1.68008371	     35.55804623	     -5.21613839	     -7.49999987	    105.36482031	    -22.42356623	      4.69411535	     97.44287655	      1.70069903	     32.92943051	     -0.71793347	     -7.49999987	    -11.37951916	      1.52901159	      0.11559928	     67.70274672	    -27.66803592	     48.71189833	    133.66284218	    111.69715614	     71.53994664	    -28.45285887	     57.83821072	    130.04927902	    108.06522074
      5.95000000	    -38.38080821	     -1.10654532	     -5.90428445	     -0.33601701	      0.59931664	     -0.61938169	    100.69100110	    -11.21724598	     -3.45884012	     96.07091829	      1.67675384	     35.55031256	     -5.18488500	     -7.49999987	    105.34028288	    -22.44702911	      4.74499319	     97.28548454	      1.69795202	     33.02865391	     -0.63600603	     -7.49999987	    -11.25626831	      1.59567639	      0.22992397	     67.57925768	    -27.78813712	     48.61193693	    133.70982930	    111.33107698	     71.49477481	    -28.54742386	     57.87605665	    130.05946317	    107.11798176
      5.96000000	    -38.36491408	     -1.07455247	     -5.89770757	     -0.33614527	      0.60018047	     -0.61937459	    100.60384879	    -11.17718565	     -3.41923565	     95.93515653	      1.67438435	     35.59147724	     -5.02725495	     -7.49999987	    105.18073077	    -22.41884673	      4.65224765	     97.11489076	      1.69497460	     33.11131525	     -0.56514143	     -7.49999987	    -11.24332205	      1.57052892	      0.24904796	     67.50125531	    -27.87626754	     48.49092063	    133.76428589	    111.14091063	     71.52397479	    -28.66454433	     57.88423504	    130.17769912	    106.15559627
      5.97000000	    -38.39046025	     -0.99663675	     -5.89543000	     -0.33637913	      0.60078337	     -0.61942335	    100.61760515	    -11.15704399	     -3.35028987	     95.82349289	      1.67243545	     35.48977226	     -5.05274893	     -7.49999987	    105.10438957	    -22.38349213	      4.55224195	     96.97997608	      1.69261989	     33.02434526	     -0.65341787	     -7.49999987	    -11.14674733	      1.50989437	      0.23964327	     67.44051536	    -27.96941579	     48.43532883	    133.67408987	    111.75645647	     71.55640873	    -28.81369674	     57.81655957	    130.23593109	    105.85659237
      5.98000000	    -38.49774580	     -1.00055999	     -5.90220365	     -0.33664550	      0.60138791	     -0.61959725	    100.65400282	    -11.14957730	     -3.41503795	     95.63059084	      1.66906868	     35.07420117	     -5.56029162	     -7.49999987	    105.13305482	    -22.30294269	      4.53206901	     96.82539240	      1.68992190	     32.47484035	     -1.34945698	     -7.49999987	    -10.98420329	      1.58297996	      0.30862909	     67.38026101	    -28.10960820	     48.32609492	    133.62238447	    112.50685067	     71.45853088	    -28.88961619	     57.48764996	    129.95046848	    107.92636654
      5.99000000	    -38.54947856	     -1.02900762	     -5.91312863	     -0.33682369	      0.60190379	     -0.61972991	    100.61377404	    -11.14709792	     -3.47003132	     95.47912640	      1.66642512	     35.10327373	     -5.45204231	     -7.49999987	    105.11569222	    -22.27539684	      4.52356189	     96.70719253	      1.68785892	     32.59008778	     -1.30393813	     -7.49999987	    -10.88307397	      1.66744600	      0.34904786	     67.34167982	    -28.16986531	     48.30395103	    133.62035922	    112.10560342	     71.45268160	    -29.00602430	     57.44815736	    129.89484689	    108.51023502
      6.00000000	    -38.56221464	     -1.03848631	     -5.92787039	     -0.33707012	      0.60236865	     -0.61984101	    100.58975994	    -11.11864999	     -3.47639673	     95.37156148	      1.66454776	     34.86270736	     -5.58593072	     -7.49999987	    105.08252434	    -22.22229725	      4.52853876	     96.61594362	      1.68626633	     32.37440409	     -1.66332159	     -7.49999987	    -10.83394674	      1.74082862	      0.41557799	     67.34431059	    -28.16263822	     48.26082091	    133.63758880	    111.84660424	     71.38668021	    -29.00468843	     57.32728227	    129.81849099	    108.57921288
      6.01000000	    -38.63206902	     -0.98285856	     -5.88060212	     -0.33728204	      0.60272749	     -0.61981707	    100.62517021	    -11.13232303	     -3.40978803	     95.28638540	      1.66306116	     35.12418274	     -5.41432026	     -7.49999987	    105.05872069	    -22.21205663	      4.41974166	     96.46415491	      1.68361711	     32.54570978	     -1.25712389	     -7.49999987	    -10.69939532	      1.67467393	      0.41516930	     67.23574716	    -28.28627126	     48.37730059	    133.73893061	    110.48436072	     71.46324305	    -29.10149301	     57.51259307	    129.88445976	    107.52787520
      6.02000000	    -38.67065299	     -0.89336036	     -5.84280119	     -0.33753527	      0.60293013	     -0.61996683	    100.70600470	    -11.16242411	     -3.30285424	     95.26463415	      1.66268153	     35.03899816	     -5.59131945	     -7.49999987	    105.03712409	    -22.15633430	      4.30472504	     96.41497093	      1.68275869	     32.42711146	     -1.47603373	     -7.49999987	    -10.60482196	      1.61698496	      0.41596517	     66.90064355	    -28.16183413	     47.61678250	    133.76329895	    109.66348925	     71.08753632	    -29.06099303	     56.66932352	    129.86515441	    106.90142014
      6.03000000	    -38.65611291	     -0.93693234	     -5.87106061	     -0.33775896	      0.60330436	     -0.62005598	    100.62602621	    -11.15093496	     -3.38124841	     95.14061164	      1.66051693	     35.00913363	     -5.50588432	     -7.49999987	    105.00903974	    -22.21309579	      4.30521841	     96.33019195	      1.68127902	     32.45796972	     -1.36224377	     -7.49999987	    -10.61996166	      1.70943187	      0.44725913	     67.23513948	    -28.28631003	     48.27340548	    133.70477450	    109.93303246	     71.45262496	    -29.31453700	     57.44938011	    129.91608335	    107.33199370
      6.04000000	    -38.64634080	     -0.92609227	     -5.86086272	     -0.33800429	      0.60349635	     -0.62020576	    100.61001546	    -11.19507034	     -3.38636384	     95.09123461	      1.65965513	     34.98102786	     -5.40652831	     -7.49999987	    104.98021327	    -22.21452057	      4.27242398	     96.29148513	      1.68060346	     32.48998522	     -1.16528321	     -7.49999987	    -10.59195491	      1.73758559	      0.43258006	     67.24250642	    -28.24741144	     48.14629019	    133.47031455	    111.48191761	     71.40715983	    -29.37224301	     57.20511809	    129.67341421	    109.27236734
      6.05000000	    -38.74537885	     -0.91009472	     -5.83391700	     -0.33828586	      0.60352675	     -0.62040429	    100.70627643	    -11.25994783	     -3.39911189	     95.02717346	      1.65853706	     34.92007692	     -5.48272712	     -7.49999987	    105.05591590	    -22.16659062	      4.23492327	     96.21784186	      1.67931814	     32.40840391	     -1.28941648	     -7.49999987	    -10.43624664	      1.76622754	      0.45212067	     67.13145581	    -28.27606124	     48.00852618	    133.53656752	    110.81504203	     71.23986922	    -29.34480119	     57.07765914	    129.73890315	    108.74924703
      6.06000000	    -38.72385719	     -0.91498352	     -5.82632321	     -0.33852375	      0.60362102	     -0.62055661	    100.70026786	    -11.32679641	     -3.44655446	     95.00162709	      1.65809119	     34.90275817	     -5.43906590	     -7.49999987	    105.04603287	    -22.16924527	      4.20231584	     96.19633693	      1.67894281	     32.39457503	     -1.25565088	     -7.49999987	    -10.44650438	      1.79846978	      0.47729140	     67.21367510	    -28.29506031	     48.15118073	    133.57270679	    110.64834259	     71.30239437	    -29.36668719	     57.21041823	    129.65727674	    108.66886101
      6.07000000	    -38.69616679	     -0.89964221	     -5.81367766	     -0.33871369	      0.60367435	     -0.62064272	    100.68574268	    -11.35667517	     -3.41631632	     94.99072497	      1.65790091	     34.94456439	     -5.30281280	     -7.49999987	    105.00985283	    -22.18580496	      4.13037377	     96.16953400	      1.67847501	     32.44810475	     -1.19861273	     -7.49999987	    -10.45879799	      1.79823749	      0.48660701	     67.18698726	    -28.26733894	     48.04332089	    133.50116807	    111.56908101	     71.26514074	    -29.38105768	     57.10693269	    129.56632914	    109.18059371
      6.08000000	    -38.68535659	     -0.95270456	     -5.81639392	     -0.33891957	      0.60360717	     -0.62072358	    100.66614597	    -11.37603449	     -3.43499259	     95.01608095	      1.65834345	     35.06566480	     -5.04924508	     -7.49999987	    105.06449567	    -22.21997458	      4.16849776	     96.19250754	      1.67887597	     32.49942661	     -1.04295680	     -7.49999987	    -10.44966280	      1.87300699	      0.50994650	     67.21291435	    -28.29434921	     48.16713398	    133.55510940	    110.73454519	     71.18978898	    -29.35428628	     57.13881877	    129.62960035	    108.37922969
      6.09000000	    -38.67355619	     -0.98962931	     -5.80063695	     -0.33917189	      0.60345974	     -0.62071792	    100.67849339	    -11.41514853	     -3.39704481	     95.10777181	      1.65994376	     35.29805716	     -4.54445516	     -7.49999987	    105.10059804	    -22.24636644	      4.20927169	     96.20141604	      1.67903145	     32.58571558	     -0.73436009	     -7.49999987	    -10.42225685	      1.93296643	      0.51952927	     67.20238851	    -28.25735168	     48.17586653	    133.57088645	    110.23549619	     71.09900189	    -29.36120343	     57.11845949	    129.66545557	    107.69991633
      6.10000000	    -38.62646939	     -0.95810448	     -5.78397747	     -0.33944933	      0.60335384	     -0.62071120	    100.70687730	    -11.45768033	     -3.31890942	     95.18168831	      1.66123385	     35.14365178	     -4.51290981	     -7.49999987	    105.07900263	    -22.26783622	      4.14360083	     96.21573540	      1.67928137	     32.41958748	     -0.89139498	     -7.49999987	    -10.45429310	      1.92345718	      0.48894098	     67.18696630	    -28.06865907	     47.93276309	    133.38280872	    111.80217458	     70.99293892	    -29.42201600	     56.82905103	    129.49274219	    109.35457050
